#!OML:ASF F:\VICON\USERDATA\INSTALL\rory3\rory3.ASF
:FULLY-SPECIFIED
:DEGREES
142
root -2.05426 14.8475 3.03233 12.3571 6.36783 -3.47083
lowerback -1.50208 0.43419 -0.911765
upperback -2.40402 0.57673 -0.659102
thorax -1.62273 0.298536 -0.164043
lowerneck -13.6406 -6.49812 -6.56287
upperneck 7.1631 -8.67342 10.3731
head 5.13387 -3.7963 3.53978
rclavicle 3.57812e-015 2.70347e-014
rhumerus -6.97382 47.3075 -93.1552
rradius 87.5918
rwrist 25.0388
rhand -7.58533 -33.1453
rfingers 7.12502
rthumb 18.3078 297.696
lclavicle 3.57812e-015 2.70347e-014
lhumerus -22.5695 -45.5798 74.5371
lradius 104.41
lwrist 2.91128
lhand -27.1099 -33.0007
lfingers 7.12502
lthumb -0.526207 -3.02158
rfemur -40.4868 -7.83287 30.2754
rtibia 100.244
rfoot -6.189 -17.9534
rtoes -21.2744
lfemur -62.6596 -2.70937 -25.7625
ltibia 71.9764
lfoot -18.7878 3.94171
ltoes 6.11885
143
root -2.10252 14.889 3.37685 12.1837 6.53288 -1.2389
lowerback 0.647716 -0.0191837 -3.67134
upperback -2.90668 -0.147379 -1.21689
thorax -3.34989 0.0094251 0.808958
lowerneck -12.5332 -6.11311 -6.80316
upperneck 7.09857 -8.24058 11.0621
head 4.93766 -3.58664 3.86433
rclavicle 9.0447e-015 -1.35174e-014
rhumerus -5.73028 47.3918 -91.7236
rradius 88.482
rwrist 25.288
rhand -9.64556 -34.6218
rfingers 7.12502
rthumb 16.3249 296.045
lclavicle 9.0447e-015 -1.35174e-014
lhumerus -16.5521 -46.3407 70.8474
lradius 104.819
lwrist 0.996151
lhand -25.6071 -32.2314
lfingers 7.12502
lthumb 0.925178 -2.25367
rfemur -46.0796 -7.62296 27.3077
rtibia 102.626
rfoot -7.02839 -18.7202
rtoes -20.2256
lfemur -60.155 -2.83835 -28.1044
ltibia 71.4336
lfoot -20.1295 4.13064
ltoes 5.80153
144
root -2.1494 14.9194 3.72099 11.9366 6.45701 0.914911
lowerback 1.37976 -0.372605 -6.32725
upperback -2.21437 -0.725646 -1.83529
thorax -3.01106 -0.237576 1.6777
lowerneck -13.0011 -5.85345 -6.6133
upperneck 6.8947 -7.93328 11.5166
head 4.93963 -3.3936 3.99777
rclavicle -2.8128e-014 1.66979e-014
rhumerus -1.0583 47.1524 -87.6439
rradius 89.1219
rwrist 25.6341
rhand -11.7747 -37.3882
rfingers 7.12502
rthumb 14.2741 293.122
lclavicle -2.8128e-014 1.66979e-014
lhumerus -7.59301 -45.9136 64.812
lradius 104.901
lwrist -1.03944
lhand -23.1872 -30.314
lfingers 7.12502
lthumb 3.26228 -0.359233
rfemur -51.7036 -6.74173 24.2584
rtibia 104.315
rfoot -6.57874 -19.1923
rtoes -20.7008
lfemur -57.6197 -2.57495 -30.3868
ltibia 71.0255
lfoot -21.6396 4.23861
ltoes 5.53895
145
root -2.15777 15.0271 4.08157 12.0928 6.81189 -0.821072
lowerback 1.793 -0.680948 -4.65629
upperback -2.31961 -1.10913 -1.41344
thorax -3.33896 -0.454279 1.20254
lowerneck -13.1712 -5.59991 -6.37685
upperneck 7.21956 -7.65689 11.5359
head 5.03436 -3.23749 3.98861
rclavicle -5.05907e-014 -4.69132e-014
rhumerus 2.11403 46.2277 -84.483
rradius 89.7536
rwrist 25.9485
rhand -14.1376 -39.0591
rfingers 7.12502
rthumb 11.9964 291.305
lclavicle -5.05907e-014 -4.69132e-014
lhumerus -0.396628 -44.9753 60.0575
lradius 104.842
lwrist -3.41653
lhand -20.2446 -26.8405
lfingers 7.12502
lthumb 6.10369 3.05157
rfemur -56.985 -4.44202 25.4586
rtibia 103.919
rfoot -5.09069 -20.4994
rtoes -15.9662
lfemur -56.2637 -1.86806 -28.3741
ltibia 70.7264
lfoot -23.0862 3.90752
ltoes 5.85288
146
root -2.17712 15.0668 4.42079 12.2567 6.93656 -2.21965
lowerback 2.75559 -0.962603 -3.41352
upperback -2.65214 -1.48763 -1.05436
thorax -4.22569 -0.652091 0.917962
lowerneck -13.3059 -5.31316 -6.12559
upperneck 7.69707 -7.3385 11.4173
head 5.16029 -3.06603 3.93853
rclavicle 1.49089e-014 -4.77083e-015
rhumerus 4.93747 44.9807 -81.5604
rradius 90.33
rwrist 25.5961
rhand -16.8636 -39.4473
rfingers 7.12502
rthumb 9.36698 290.781
lclavicle 1.49089e-014 -4.77083e-015
lhumerus 6.41344 -43.8207 55.5843
lradius 104.421
lwrist -5.32799
lhand -17.4679 -22.9352
lfingers 7.12502
lthumb 8.7838 6.86201
rfemur -62.615 -2.01544 25.9096
rtibia 103.352
rfoot -4.97577 -21.4157
rtoes -17.7424
lfemur -55.2014 -0.966379 -26.7224
ltibia 70.6353
lfoot -24.3991 3.64873
ltoes 5.41802
147
root -2.20626 15.2021 4.77948 12.2095 6.83991 -1.57104
lowerback 3.90473 -1.31666 -4.49585
upperback -2.71993 -2.08756 -1.18177
thorax -4.89763 -0.902706 1.4603
lowerneck -13.71 -5.06217 -5.78165
upperneck 8.27128 -7.07348 11.2037
head 5.36031 -2.91244 3.83408
rclavicle -9.54166e-015 -3.97569e-015
rhumerus 8.23958 43.8544 -78.2941
rradius 90.8094
rwrist 24.3024
rhand -19.3157 -40.4453
rfingers 7.12502
rthumb 7.0004 289.69
lclavicle -9.54166e-015 -3.97569e-015
lhumerus 13.2605 -42.3063 51.0849
lradius 103.583
lwrist -6.21744
lhand -15.8934 -21.6151
lfingers 7.12502
lthumb 10.303 8.11257
rfemur -67.2127 -0.374228 23.6227
rtibia 101.843
rfoot -5.0276 -21.368
rtoes -16.25
lfemur -52.5846 -0.254478 -27.2397
ltibia 69.6037
lfoot -25.8818 3.51148
ltoes 5.42845
148
root -2.2201 15.3259 5.14232 12.6912 6.88647 -2.20037
lowerback 4.13726 -1.66902 -4.1012
upperback -2.77911 -2.53965 -0.962765
thorax -5.07142 -1.13207 1.51065
lowerneck -16.1487 -5.20726 -4.24512
upperneck 10.6181 -7.41883 9.06896
head 6.38494 -3.04611 2.82341
rclavicle 1.15295e-014 1.03368e-014
rhumerus 11.868 42.5483 -74.7041
rradius 91.2332
rwrist 22.4521
rhand -20.7998 -42.3491
rfingers 7.12502
rthumb 5.5676 287.744
lclavicle 1.15295e-014 1.03368e-014
lhumerus 19.6732 -40.3134 46.9869
lradius 102.229
lwrist -6.21937
lhand -15.6848 -22.5661
lfingers 7.12502
lthumb 10.5042 7.15147
rfemur -72.0287 1.42946 22.5247
rtibia 99.6336
rfoot -1.89376 -21.2748
rtoes -16.307
lfemur -51.0362 0.343982 -26.3203
ltibia 68.5458
lfoot -26.8221 3.13738
ltoes 6.81129
149
root -2.21303 15.488 5.50825 13.8939 7.19679 -3.50475
lowerback 3.41385 -2.02818 -2.75077
upperback -2.95005 -2.89231 -0.52596
thorax -4.85705 -1.34993 1.21189
lowerneck -17.012 -5.04024 -3.82592
upperneck 11.0167 -7.24114 8.68689
head 6.6134 -2.94014 2.63791
rclavicle -6.12257e-014 3.97569e-015
rhumerus 14.669 40.5774 -71.4992
rradius 91.2609
rwrist 19.9843
rhand -21.4321 -43.6898
rfingers 7.12502
rthumb 4.95716 286.388
lclavicle -6.12257e-014 3.97569e-015
lhumerus 25.5803 -38.127 43.3883
lradius 100.553
lwrist -5.51507
lhand -15.1909 -22.668
lfingers 7.12502
lthumb 10.9806 7.0248
rfemur -77.4547 2.87004 21.7356
rtibia 96.7238
rfoot -3.98041 -21.8044
rtoes -18.5652
lfemur -50.0878 0.540533 -24.6251
ltibia 66.9005
lfoot -27.0819 2.91044
ltoes 7.15912
150
root -2.2199 15.69 5.88602 15.1599 7.30172 -4.11139
lowerback 2.44286 -2.27483 -2.5466
upperback -3.10561 -3.16576 -0.114839
thorax -4.44352 -1.49218 1.50073
lowerneck -17.1946 -4.81131 -3.87966
upperneck 10.7436 -6.93162 8.94276
head 6.54914 -2.77404 2.76273
rclavicle 1.21259e-014 1.35174e-014
rhumerus 17.6012 38.5827 -67.9251
rradius 91.044
rwrist 15.781
rhand -21.5667 -45.5842
rfingers 7.12502
rthumb 4.82715 284.491
lclavicle 1.21259e-014 1.35174e-014
lhumerus 30.9403 -35.9401 40.3454
lradius 98.7679
lwrist -4.05132
lhand -13.8292 -22.0104
lfingers 7.12502
lthumb 12.2938 7.60823
rfemur -82.4025 3.97373 20.3288
rtibia 93.3885
rfoot -1.00673 -21.1261
rtoes -13.3758
lfemur -48.7013 0.530157 -23.5892
ltibia 64.6292
lfoot -27.119 3.17365
ltoes 6.18648
151
root -2.24552 15.9003 6.26817 16.0732 7.14183 -4.13747
lowerback 1.79563 -2.41268 -3.45444
upperback -3.15415 -3.3501 0.328206
thorax -4.0444 -1.55489 2.44197
lowerneck -16.7251 -4.61753 -4.35832
upperneck 9.71014 -6.58864 9.64872
head 6.16268 -2.61046 3.11352
rclavicle 1.78906e-014 -1.74931e-014
rhumerus 20.6917 36.5476 -64.1006
rradius 90.6352
rwrist 10.4389
rhand -21.5741 -47.3931
rfingers 7.12502
rthumb 4.82005 282.682
lclavicle 1.78906e-014 -1.74931e-014
lhumerus 35.7272 -33.8168 37.7939
lradius 96.9588
lwrist -2.56033
lhand -12.591 -23.254
lfingers 7.12502
lthumb 13.4874 6.28931
rfemur -86.6491 4.97561 18.1647
rtibia 89.7504
rfoot -0.727405 -20.9852
rtoes -12.5138
lfemur -46.5821 0.349611 -23.0999
ltibia 61.7711
lfoot -26.8763 4.09103
ltoes 3.08737
152
root -2.2369 16.1712 6.66546 16.59 7.62774 -5.21423
lowerback 1.30379 -2.70468 -2.58437
upperback -3.09044 -3.67146 0.967844
thorax -3.68839 -1.74076 2.60095
lowerneck -15.4556 -4.26676 -5.70799
upperneck 7.47831 -5.9337 11.6905
head 5.32159 -2.28688 4.06963
rclavicle -7.95139e-015 -2.38542e-015
rhumerus 24.2475 34.7391 -59.8675
rradius 90.148
rwrist 5.02164
rhand -21.8298 -48.9241
rfingers 7.12502
rthumb 4.57313 281.145
lclavicle -7.95139e-015 -2.38542e-015
lhumerus 39.9171 -31.5992 35.3429
lradius 95.512
lwrist -1.15217
lhand -10.2066 -27.4155
lfingers 7.12502
lthumb 15.7847 1.96087
rfemur -89.741 5.33974 17.1972
rtibia 85.5742
rfoot 0.115786 -20.8133
rtoes -12.6417
lfemur -43.7146 -0.519702 -21.3885
ltibia 58.3021
lfoot -26.1319 5.49017
ltoes -1.28935
153
root -2.22114 16.4341 7.04493 16.7056 8.13469 -5.76904
lowerback 1.48194 -3.08302 -2.14208
upperback -2.77845 -4.14858 1.49574
thorax -3.42756 -1.99249 2.91391
lowerneck -16.4198 -4.05466 -5.45639
upperneck 7.31466 -5.60695 11.3353
head 5.37983 -2.11753 3.93911
rclavicle 7.95139e-016 8.74653e-015
rhumerus 27.4027 32.5115 -56.2798
rradius 89.3302
rwrist 1.60234
rhand -22.0683 -49.9655
rfingers 7.12502
rthumb 4.34286 280.099
lclavicle 7.95139e-016 8.74653e-015
lhumerus 42.8205 -28.8089 33.5694
lradius 93.8085
lwrist 0.655331
lhand -8.37544 -22.4725
lfingers 7.12502
lthumb 17.5476 6.75559
rfemur -91.9667 5.15867 16.3845
rtibia 81.8232
rfoot 1.15018 -20.5729
rtoes -15.8827
lfemur -40.276 -2.26836 -20.1927
ltibia 54.49
lfoot -24.505 7.39186
ltoes -4.46611
